<?xml version="1.0" encoding="UTF-8" standalone="no"?>
<!-- Created with Inkscape (http://www.inkscape.org/) -->

<svg
   width="40.961021mm"
   height="45.929592mm"
   viewBox="0 0 40.961021 45.929592"
   version="1.1"
   id="svg5"
   xml:space="preserve"
   inkscape:version="1.2.2 (1:1.2.2+202212051550+b0a8486541)"
   sodipodi:docname="sensitivity_logos_bw_torch.svg"
   xmlns:inkscape="http://www.inkscape.org/namespaces/inkscape"
   xmlns:sodipodi="http://sodipodi.sourceforge.net/DTD/sodipodi-0.dtd"
   xmlns:xlink="http://www.w3.org/1999/xlink"
   xmlns="http://www.w3.org/2000/svg"
   xmlns:svg="http://www.w3.org/2000/svg"><sodipodi:namedview
     id="namedview7"
     pagecolor="#505050"
     bordercolor="#eeeeee"
     borderopacity="1"
     inkscape:showpageshadow="0"
     inkscape:pageopacity="0"
     inkscape:pagecheckerboard="0"
     inkscape:deskcolor="#505050"
     inkscape:document-units="mm"
     showgrid="false"
     inkscape:zoom="1.1893044"
     inkscape:cx="-66.004969"
     inkscape:cy="186.66373"
     inkscape:window-width="2560"
     inkscape:window-height="1381"
     inkscape:window-x="0"
     inkscape:window-y="27"
     inkscape:window-maximized="1"
     inkscape:current-layer="g262" /><defs
     id="defs2"><linearGradient
       inkscape:collect="always"
       id="linearGradient916"><stop
         style="stop-color:#ffffff;stop-opacity:1;"
         offset="0"
         id="stop912" /><stop
         style="stop-color:#ffffff;stop-opacity:1;"
         offset="0"
         id="stop920" /><stop
         style="stop-color:#ffffff;stop-opacity:1;"
         offset="1"
         id="stop914" /></linearGradient><style
       id="style606">.cls-1{fill:#5e97f6;}.cls-1,.cls-2,.cls-3,.cls-4,.cls-5,.cls-6,.cls-7,.cls-8,.cls-9{stroke:#dce0df;stroke-linejoin:round;}.cls-2{fill:#2a56c6;}.cls-3{fill:#00796b;}.cls-4{fill:#3367d6;}.cls-5{fill:#26a69a;}.cls-6{fill:#9c27b0;}.cls-7{fill:#6a1b9a;}.cls-8{fill:#00695c;}.cls-9{fill:#ea80fc;}</style><linearGradient
       inkscape:collect="always"
       xlink:href="#linearGradient916"
       id="linearGradient918"
       x1="3.0020845"
       y1="12.002304"
       x2="20.997915"
       y2="12.002304"
       gradientUnits="userSpaceOnUse" /><linearGradient
       inkscape:collect="always"
       xlink:href="#linearGradient916"
       id="linearGradient290"
       gradientUnits="userSpaceOnUse"
       x1="3.0020845"
       y1="12.002304"
       x2="20.997915"
       y2="12.002304" /></defs><g
     inkscape:label="Layer 1"
     inkscape:groupmode="layer"
     id="layer1"
     transform="translate(-97.363286,-86.964195)"><g
       id="g262"
       transform="matrix(0.26458333,0,0,0.26458333,53.718834,116.48542)"><g
         style="fill:#000000;stroke:url(#linearGradient918);stroke-width:0.161659;stroke-dasharray:none"
         id="g431"
         transform="matrix(7.0139067,0,0,7.0139067,144.46907,-125.06949)"><path
           id="primary"
           d="M 19,22 H 4 A 1,1 0 0 1 3.09,20.59 l 8,-18 a 1,1 0 0 1 1.82,0 l 8,18 A 1,1 0 0 1 20,22 Z M 5.54,20 h 11.92 l -6,-13.41 z"
           style="fill:#000000;stroke:url(#linearGradient290);stroke-width:0.161659;stroke-dasharray:none" /></g><g
         id="group"
         transform="matrix(1.4356265,0,0,1.4356265,213.11443,-69.332463)"
         style="fill:#000000;fill-opacity:1;stroke:#ffffff;stroke-width:0.7898;stroke-dasharray:none;stroke-opacity:1"><path
           id="Path"
           d="m 63.1,28.3 -6.6,6.6 c 10.8,10.8 10.8,28.2 0,38.8 C 45.7,84.5 28.3,84.5 17.7,73.7 6.9,62.9 6.9,45.5 17.7,34.9 L 34.8,17.8 37.2,15.4 V 2.5 L 11.4,28.3 c -14.4,14.4 -14.4,37.6 0,52 14.4,14.4 37.6,14.4 51.7,0 14.4,-14.5 14.4,-37.6 0,-52 z"
           fill="#ee4c2c"
           fill-opacity="1"
           stroke="none"
           style="fill:#000000;fill-opacity:1;stroke:#ffffff;stroke-width:0.7898;stroke-dasharray:none;stroke-opacity:1" /><path
           id="Path-1"
           d="m 55,21.9 c 0,2.651 -2.149,4.8 -4.8,4.8 -2.651,0 -4.8,-2.149 -4.8,-4.8 0,-2.651 2.149,-4.8 4.8,-4.8 2.651,0 4.8,2.149 4.8,4.8 z"
           fill="#ee4c2c"
           fill-opacity="1"
           stroke="none"
           style="fill:#000000;fill-opacity:1;stroke:#ffffff;stroke-width:0.7898;stroke-dasharray:none;stroke-opacity:1" /></g></g></g></svg>
